<svg id="Layer_1" xmlns="http://www.w3.org/2000/svg" version="1.1" viewBox="0 0 1313.25 2064.75">
  
  <defs>
    <style>
      .st0 {
        fill: #227272;
      }
    </style>
  </defs>
  <path id="path1" class="st0" d="M455.63,151.72C117.6,264.37.38,303.75.15,304.65c-.15.83,18,16.13,58.13,48.98,52.2,42.68,58.58,47.7,60.38,47.33S1026.23,99.3,1030.5,97.65c1.28-.45-8.1-8.48-57.53-48.9C940.43,22.2,913.2.37,912.38.22c-.83-.08-206.33,68.1-456.75,151.5Z"/>
  <path id="path2" class="st0" d="M787.13,202.2c-145.2,48.38-350.63,116.78-456.53,151.95-105.9,35.18-192.45,64.2-192.23,64.5.3.45,111.38,91.5,116.7,95.7,1.05.75,75.9-23.93,457.88-151.05,251.18-83.55,456.9-152.18,457.2-152.4.6-.6-116.48-96.45-118.05-96.68-.53-.08-119.78,39.53-264.98,87.98Z"/>
  <path id="path3" class="st0" d="M1014,286.57c-97.58,32.55-303.3,101.1-457.13,152.25-153.83,51.23-279.83,93.15-279.9,93.23s26.25,21.83,58.58,48.15l58.65,48,181.35-60.23c99.75-33.23,181.58-60.08,181.8-59.7.3.3.38,293.03.15,650.48l-.38,649.88-238.13,78.75-238.13,78.75,3.53,3.53c2.03,2.03,28.95,24.15,59.93,49.28,48.23,39.15,56.48,45.6,57.53,44.85.68-.53,205.95-68.93,456.15-152.03,382.35-127.05,454.88-151.35,454.88-152.48,0-.9-20.18-17.85-58.13-48.98-55.35-45.3-58.2-47.55-60.38-47.03-1.28.38-71.78,23.7-156.75,51.98l-154.5,51.38V466.12l212.25-70.95c130.13-43.43,212.25-71.25,212.25-71.85,0-.53-26.18-22.28-58.13-48.45-31.95-26.18-58.13-47.55-58.13-47.55,0,0-79.8,26.7-177.38,59.25Z"/>
  <path id="path4" class="st0" d="M667.5,560.85l-67.13,22.35-.38,557.18-.38,557.25-230.63,76.13-230.63,76.13,2.93,2.63c1.65,1.43,29.1,24,61.05,50.1,49.35,40.35,58.43,47.4,59.7,46.88.9-.3,107.93-35.7,237.83-78.6l236.25-78-.23-627.23c-.08-344.93-.38-627.15-.75-627.08-.3,0-30.75,10.05-67.65,22.28Z"/>
  <path id="path5" class="st0" d="M510.38,613.2l-66,22.05.23,478.65.15,478.73-219.53,73.13c-168.45,56.1-219.68,73.43-219.83,74.4-.15.83,17.18,15.45,55.88,47.25,47.1,38.63,56.4,45.98,58.13,45.75,1.2-.08,104.78-34.35,230.25-76.13l228.23-75.98.23-545.03c.15-435.83,0-545.03-.75-544.95-.53,0-30.68,9.98-66.98,22.13Z"/>
  <path id="path6" class="st0" d="M910.35,1437.6l-5.85,1.95v66.23c0,36.45.23,66.23.53,66.23,1.58,0,127.73-42.45,127.58-42.9-.53-1.28-114.23-93.6-115.28-93.53-.68,0-3.83.98-6.98,2.03Z"/>
  <path id="path7" class="st0" d="M978.38,1571.17l-73.5,24.6-.23,70.2-.15,70.13,135.38-45.08c74.48-24.83,135.38-45.3,135.3-45.53-.08-.98-120.6-98.63-121.88-98.78-.75-.08-34.5,10.95-74.93,24.45Z"/>
</svg>